<svg xmlns="http://www.w3.org/2000/svg" xmlns:xlink="http://www.w3.org/1999/xlink" width="1366" zoomAndPan="magnify" viewBox="0 0 1024.5 271.499997" height="768" preserveAspectRatio="xMidYMid meet" version="1.0"><defs><g/><clipPath id="bf5e62d5df"><path d="M 360.15625 3 L 665 3 L 665 269.796875 L 360.15625 269.796875 Z M 360.15625 3 " clip-rule="nonzero"/></clipPath><clipPath id="f0587f57eb"><path d="M 372.238281 45.652344 C 347.523438 86.375 364.9375 126.007812 386.820312 147.042969 L 514.765625 269.796875 L 640.011719 147.480469 C 660.363281 124.851562 668.164062 100.851562 663.832031 74.121094 C 657.847656 37.148438 627.378906 8.464844 589.742188 4.367188 C 566.660156 1.882812 544.359375 8.417969 526.957031 22.878906 C 522.269531 26.769531 518.085938 31.121094 514.433594 35.847656 C 510.105469 30.464844 505.027344 25.539062 499.289062 21.175781 C 479.273438 5.964844 453.796875 -0.0742188 429.328125 4.621094 C 406.152344 9.101562 385.347656 24.050781 372.238281 45.652344 Z M 372.238281 45.652344 " clip-rule="nonzero"/></clipPath></defs><g clip-path="url(#bf5e62d5df)"><g clip-path="url(#f0587f57eb)"><path fill="#fd288d" d="M 360.15625 3.066406 L 665.4375 3.066406 L 665.4375 269.796875 L 360.15625 269.796875 Z M 360.15625 3.066406 " fill-opacity="1" fill-rule="nonzero"/></g></g><g fill="#191919" fill-opacity="1"><g transform="translate(198.267749, 135.093352)"><g><path d="M 85.65625 -48.71875 L 48.078125 -48.71875 L 48.078125 -33.03125 L 69.46875 -33.03125 C 67.5625 -19.859375 58.578125 -13.28125 47.453125 -13.28125 C 31.890625 -13.28125 23.15625 -26.0625 23.15625 -45.046875 C 23.15625 -63.515625 31.765625 -76.046875 47.453125 -76.046875 C 58.453125 -76.046875 65.03125 -69.96875 66.6875 -60.484375 L 85.03125 -61.625 C 82 -80.59375 68.703125 -92.234375 46.4375 -92.234375 C 22.390625 -92.234375 4.421875 -74.28125 4.421875 -45.046875 C 4.421875 -15.8125 22.65625 2.90625 45.421875 2.90625 C 57.4375 2.90625 66.046875 -2.40625 70.609375 -9.609375 L 73.515625 0 L 85.65625 0 Z M 85.65625 -48.71875 "/></g></g></g><g fill="#191919" fill-opacity="1"><g transform="translate(288.345027, 135.093352)"><g><path d="M 37.453125 2.15625 C 57.0625 2.15625 70.859375 -12.65625 70.859375 -32.390625 C 70.859375 -52.125 57.0625 -66.9375 37.453125 -66.9375 C 17.84375 -66.9375 4.046875 -52.125 4.046875 -32.390625 C 4.046875 -12.65625 17.84375 2.15625 37.453125 2.15625 Z M 37.453125 -11.765625 C 27.453125 -11.765625 21.25 -19.859375 21.25 -32.390625 C 21.25 -44.921875 27.453125 -53.015625 37.453125 -53.015625 C 47.453125 -53.015625 53.65625 -44.921875 53.65625 -32.390625 C 53.65625 -19.859375 47.453125 -11.765625 37.453125 -11.765625 Z M 37.453125 -11.765625 "/></g></g></g><g fill="#ffffff" fill-opacity="1"><g transform="translate(359.45223, 135.093352)"><g><path d="M 37.453125 2.15625 C 57.0625 2.15625 70.859375 -12.65625 70.859375 -32.390625 C 70.859375 -52.125 57.0625 -66.9375 37.453125 -66.9375 C 17.84375 -66.9375 4.046875 -52.125 4.046875 -32.390625 C 4.046875 -12.65625 17.84375 2.15625 37.453125 2.15625 Z M 37.453125 -11.765625 C 27.453125 -11.765625 21.25 -19.859375 21.25 -32.390625 C 21.25 -44.921875 27.453125 -53.015625 37.453125 -53.015625 C 47.453125 -53.015625 53.65625 -44.921875 53.65625 -32.390625 C 53.65625 -19.859375 47.453125 -11.765625 37.453125 -11.765625 Z M 37.453125 -11.765625 "/></g></g></g><g fill="#ffffff" fill-opacity="1"><g transform="translate(430.55247, 135.093352)"><g><path d="M 49.734375 -58.703125 C 45.296875 -64.15625 39.09375 -66.9375 30.75 -66.9375 C 15.9375 -66.9375 4.046875 -54.28125 4.046875 -32.890625 C 4.046875 -11.890625 15.6875 2.15625 32.140625 2.15625 C 40.234375 2.15625 46.6875 -1.265625 51.125 -8.09375 L 51.75 0 L 67.5625 0 L 67.5625 -90.09375 L 49.734375 -90.09375 Z M 35.9375 -13.53125 C 27.328125 -13.53125 21.25 -20.875 21.25 -32.890625 C 21.25 -44.796875 27.328125 -52.125 35.9375 -52.125 C 44.53125 -52.125 50.609375 -44.671875 50.609375 -32.890625 C 50.609375 -21.125 44.53125 -13.53125 35.9375 -13.53125 Z M 35.9375 -13.53125 "/></g></g></g><g fill="#ffffff" fill-opacity="1"><g transform="translate(497.484612, 158.35518)"><g><path d="M 35.90625 -86.078125 L 7.859375 -86.078125 L 7.859375 0 L 38.328125 0 C 67.59375 0 80.40625 -17.890625 80.40625 -43.640625 C 80.40625 -69.40625 68.1875 -86.078125 35.90625 -86.078125 Z M 25.75 -15.109375 L 25.75 -71.578125 L 34.21875 -71.578125 C 56.21875 -71.578125 62.515625 -61.65625 62.515625 -43.046875 C 62.515625 -24.296875 55.609375 -15.109375 36.640625 -15.109375 Z M 25.75 -15.109375 "/></g></g></g><g fill="#ffffff" fill-opacity="1"><g transform="translate(578.124348, 158.35518)"><g><path d="M 35.78125 2.0625 C 54.53125 2.0625 67.703125 -12.09375 67.703125 -30.953125 C 67.703125 -49.8125 54.53125 -63.953125 35.78125 -63.953125 C 17.046875 -63.953125 3.875 -49.8125 3.875 -30.953125 C 3.875 -12.09375 17.046875 2.0625 35.78125 2.0625 Z M 35.78125 -11.25 C 26.234375 -11.25 20.3125 -18.984375 20.3125 -30.953125 C 20.3125 -42.921875 26.234375 -50.65625 35.78125 -50.65625 C 45.34375 -50.65625 51.265625 -42.921875 51.265625 -30.953125 C 51.265625 -18.984375 45.34375 -11.25 35.78125 -11.25 Z M 35.78125 -11.25 "/></g></g></g><g fill="#191919" fill-opacity="1"><g transform="translate(646.072455, 158.35518)"><g><path d="M 33.859375 2.0625 C 49.578125 2.0625 60.21875 -6.65625 62.75 -21.515625 L 46.0625 -21.515625 C 44.125 -14.75 40.140625 -11.25 34.09375 -11.25 C 25.390625 -11.25 20.3125 -18.25 20.3125 -30.953125 C 20.3125 -43.640625 25.390625 -50.65625 34.09375 -50.65625 C 40.265625 -50.65625 44.25 -47.390625 46.0625 -40.625 L 62.75 -40.625 C 60.21875 -55.375 49.8125 -63.953125 33.859375 -63.953125 C 15.359375 -63.953125 3.875 -51.015625 3.875 -30.953125 C 3.875 -10.875 15.359375 2.0625 33.859375 2.0625 Z M 33.859375 2.0625 "/></g></g></g><g fill="#191919" fill-opacity="1"><g transform="translate(708.577297, 158.35518)"><g><path d="M 38.9375 -49.8125 L 38.9375 -62.390625 L 27.328125 -62.03125 L 27.328125 -81.609375 L 10.28125 -81.609375 L 10.28125 -62.140625 L 1.8125 -62.390625 L 1.8125 -49.8125 L 10.28125 -50.171875 L 10.28125 -17.53125 C 10.28125 -4.953125 15.234375 0 27.8125 0 L 38.9375 0 L 38.9375 -13.65625 L 33.25 -13.65625 C 29.015625 -13.65625 27.328125 -15.359375 27.328125 -19.59375 L 27.328125 -50.171875 Z M 38.9375 -49.8125 "/></g></g></g><g fill="#191919" fill-opacity="1"><g transform="translate(746.297796, 158.35518)"><g><path d="M 35.78125 2.0625 C 54.53125 2.0625 67.703125 -12.09375 67.703125 -30.953125 C 67.703125 -49.8125 54.53125 -63.953125 35.78125 -63.953125 C 17.046875 -63.953125 3.875 -49.8125 3.875 -30.953125 C 3.875 -12.09375 17.046875 2.0625 35.78125 2.0625 Z M 35.78125 -11.25 C 26.234375 -11.25 20.3125 -18.984375 20.3125 -30.953125 C 20.3125 -42.921875 26.234375 -50.65625 35.78125 -50.65625 C 45.34375 -50.65625 51.265625 -42.921875 51.265625 -30.953125 C 51.265625 -18.984375 45.34375 -11.25 35.78125 -11.25 Z M 35.78125 -11.25 "/></g></g></g><g fill="#191919" fill-opacity="1"><g transform="translate(814.24311, 158.35518)"><g><path d="M 38.453125 -64.078125 C 31.5625 -64.078125 26.484375 -60.453125 23.703125 -53.796875 L 23.9375 -62.390625 L 7.25 -62.390625 L 7.25 0 L 24.296875 0 L 24.296875 -30.34375 C 24.296875 -42.4375 29.375 -48.359375 39.78125 -48.359375 C 40.984375 -48.359375 42.078125 -48.234375 43.28125 -48.125 L 43.28125 -63.59375 C 41.59375 -63.953125 39.90625 -64.078125 38.453125 -64.078125 Z M 38.453125 -64.078125 "/></g></g></g><g fill="#191919" fill-opacity="1"><g transform="translate(856.315976, 158.35518)"><g><path d="M 33.375 2.296875 C 50.171875 2.296875 61.0625 -5.3125 61.0625 -18.5 C 61.0625 -28.171875 55.25 -33.859375 42.796875 -36.390625 L 29.375 -39.171875 C 24.90625 -40.140625 22.375 -42.203125 22.375 -45.453125 C 22.375 -49.453125 26 -52.109375 31.671875 -52.109375 C 38.078125 -52.109375 42.6875 -48.84375 43.53125 -43.40625 L 58.875 -44.015625 C 57.3125 -56.21875 47.03125 -63.953125 31.921875 -63.953125 C 16.5625 -63.953125 6.53125 -55.984375 6.53125 -43.40625 C 6.53125 -33.859375 12.453125 -27.5625 24.671875 -25.15625 L 37 -22.734375 C 42.6875 -21.640625 45.21875 -19.828125 45.21875 -16.4375 C 45.21875 -11.734375 40.375 -9.546875 33.96875 -9.546875 C 25.875 -9.546875 21.640625 -13.0625 20.671875 -19.21875 L 5.078125 -18.625 C 6.65625 -5.3125 16.328125 2.296875 33.375 2.296875 Z M 33.375 2.296875 "/></g></g></g><g fill="#191919" fill-opacity="1"><g transform="translate(114.962567, 65.204654)"><g><path d="M 30.125 -64.03125 C 28.0625 -63.953125 25.546875 -63.953125 23.203125 -63.140625 C 14.84375 -60.171875 9.359375 -53.78125 9.4375 -43.703125 C 9.4375 -42.1875 9.625 -40.734375 9.71875 -39.21875 C 9.890625 -37.328125 10.703125 -35.796875 11.96875 -34.453125 C 12.765625 -33.453125 14.296875 -33.28125 15.296875 -34 C 16.453125 -34.71875 16.90625 -36.0625 16.453125 -37.234375 C 16.09375 -38.140625 15.5625 -39.03125 15.46875 -39.9375 C 15.109375 -42.09375 14.921875 -44.34375 15.296875 -46.5 C 15.5625 -48.75 16.28125 -50.8125 17.625 -52.609375 C 20.234375 -55.9375 23.5625 -57.828125 27.796875 -58.28125 C 30.40625 -58.546875 33 -58.453125 35.609375 -57.921875 C 40.015625 -57.109375 44.515625 -56.203125 48.921875 -55.3125 C 49.734375 -55.125 50.546875 -54.859375 51.359375 -54.6875 C 51.796875 -54.5 52.078125 -53.6875 51.796875 -53.25 C 51.625 -52.890625 51.4375 -52.53125 51.171875 -52.25 C 49.375 -49.921875 47.671875 -47.671875 45.875 -45.328125 C 45.234375 -44.421875 44.515625 -43.625 43.890625 -42.71875 C 40.5625 -37.5 37.6875 -32.015625 34 -26.984375 C 33.71875 -26.625 33.640625 -26.265625 33.359375 -25.90625 C 32.203125 -23.921875 31.03125 -21.859375 29.765625 -19.875 C 27.4375 -16.375 25 -12.765625 22.03125 -9.71875 C 20.859375 -8.453125 19.703125 -7.28125 18.34375 -6.390625 C 15.5625 -4.40625 12.046875 -4.953125 9.796875 -7.5625 C 9.171875 -8.359375 8.546875 -9.359375 8.09375 -10.34375 C 6.75 -13.21875 6.109375 -16.375 6.203125 -19.515625 C 6.203125 -20.953125 6.390625 -22.296875 6.46875 -23.65625 C 6.46875 -25 5.671875 -26.078125 4.40625 -26.4375 C 3.234375 -26.71875 1.890625 -26.078125 1.34375 -24.90625 C 0.984375 -24.109375 0.71875 -23.296875 0.71875 -22.484375 C 0.625 -20.328125 0.546875 -18.078125 0.71875 -15.921875 C 0.984375 -12.765625 1.984375 -9.71875 3.421875 -6.828125 C 4.671875 -4.5 6.296875 -2.421875 8.640625 -1.171875 C 13.21875 1.171875 17.625 1.171875 21.9375 -1.890625 C 23.03125 -2.703125 24.109375 -3.59375 25 -4.59375 C 27.15625 -6.75 29.046875 -9.078125 30.84375 -11.515625 C 35.34375 -17.625 38.859375 -24.375 43.265625 -30.578125 C 43.4375 -30.9375 43.625 -31.296875 43.796875 -31.65625 C 46.140625 -35.890625 48.75 -39.9375 51.796875 -43.703125 C 52.53125 -44.515625 53.15625 -45.421875 53.78125 -46.3125 C 55.046875 -47.9375 56.296875 -49.5625 57.5625 -51.265625 C 58.453125 -52.4375 59.453125 -53.0625 61.0625 -52.796875 C 62.5 -52.4375 64.03125 -52.34375 65.5625 -52.15625 C 67.453125 -51.984375 69.4375 -52.078125 71.328125 -52.4375 C 73.03125 -52.703125 74.46875 -53.515625 75.546875 -54.859375 C 76.984375 -56.484375 77.171875 -59.453125 75.734375 -60.890625 C 74.203125 -62.59375 72.3125 -63.671875 70.0625 -63.859375 C 66.546875 -64.21875 63.5 -63.046875 60.53125 -61.515625 C 59.71875 -61.0625 59 -60.4375 58.09375 -59.984375 C 57.65625 -59.71875 57.015625 -59.625 56.578125 -59.625 C 55.84375 -59.625 55.125 -59.71875 54.5 -59.890625 C 50.1875 -60.796875 45.875 -61.703125 41.546875 -62.59375 C 37.953125 -63.40625 34.265625 -64.03125 30.125 -64.03125 Z M 30.125 -64.03125 "/></g></g></g><g fill="#191919" fill-opacity="1"><g transform="translate(151.741712, 65.204654)"><g><path d="M 21.046875 -17 C 21.140625 -17 21.140625 -16.90625 21.21875 -16.90625 C 20.953125 -16.453125 20.78125 -15.921875 20.59375 -15.46875 C 19.875 -13.9375 19.25 -12.328125 18.53125 -10.703125 C 17.625 -9 17 -7.1875 16.453125 -5.3125 C 16.1875 -4.5 16.28125 -3.6875 16.734375 -2.96875 C 16.8125 -2.78125 16.90625 -2.609375 17 -2.515625 C 17.453125 -0.90625 18.703125 -0.265625 20.0625 0.09375 C 21.40625 0.546875 22.84375 0.359375 24.1875 -0.09375 C 26.078125 -0.8125 27.796875 -1.984375 29.3125 -3.140625 C 31.203125 -4.59375 32.921875 -6.203125 34.359375 -8.09375 C 35.171875 -9.171875 36.0625 -10.34375 36.875 -11.421875 C 37.5 -12.40625 37.5 -13.40625 36.875 -14.296875 C 36.328125 -15.296875 35.4375 -15.734375 34.265625 -15.5625 C 33.453125 -15.46875 32.828125 -15.015625 32.28125 -14.296875 C 31.390625 -13.046875 30.484375 -11.6875 29.5 -10.515625 C 27.703125 -8.453125 25.625 -6.828125 23.296875 -5.578125 C 23.03125 -5.390625 22.671875 -5.3125 22.390625 -5.125 C 22.390625 -5.21875 22.296875 -5.21875 22.21875 -5.3125 C 22.296875 -5.75 22.390625 -6.203125 22.578125 -6.65625 C 22.84375 -7.46875 23.296875 -8.1875 23.5625 -9 C 24.109375 -10.078125 24.46875 -11.15625 25 -12.234375 C 25.359375 -13.21875 25.8125 -14.125 26.265625 -15.109375 C 26.71875 -16.453125 26.984375 -17.8125 27.15625 -19.25 C 27.25 -20.78125 26.078125 -22.75 24.640625 -23.109375 C 23.65625 -23.390625 22.671875 -23.46875 21.671875 -23.203125 C 20.234375 -22.84375 18.984375 -22.03125 17.8125 -21.21875 C 15.828125 -19.875 14.03125 -18.25 12.328125 -16.546875 C 11.6875 -15.921875 11.0625 -15.203125 10.4375 -14.5625 C 9.265625 -13.40625 8 -12.234375 6.75 -11.15625 C 5.671875 -10.078125 4.59375 -9.078125 3.328125 -8 C 3.59375 -8.71875 3.78125 -9.359375 3.953125 -9.890625 C 4.59375 -11.78125 5.3125 -13.671875 6.296875 -15.375 C 6.5625 -15.828125 6.828125 -16.1875 7.109375 -16.640625 C 7.640625 -17.625 8.09375 -18.609375 8.546875 -19.609375 C 8.8125 -20.328125 9.171875 -20.78125 9.984375 -20.59375 C 10.15625 -20.5 10.4375 -20.59375 10.515625 -20.6875 C 11.609375 -21.140625 12.6875 -21.5 13.671875 -22.03125 C 14.75 -22.671875 15.65625 -23.390625 16.640625 -24.109375 C 17.265625 -24.546875 17.8125 -25 18.34375 -25.453125 C 19.421875 -26.265625 20.5 -27.078125 21.5 -27.96875 C 22.84375 -29.140625 24.1875 -30.3125 25.453125 -31.65625 C 26.53125 -32.828125 27.609375 -34.09375 28.515625 -35.34375 C 29.671875 -37.140625 30.671875 -39.125 31.84375 -40.921875 C 32.734375 -42.265625 33.28125 -43.890625 33.71875 -45.421875 C 34.265625 -47.21875 34.625 -49.015625 34.625 -51 C 34.53125 -52.609375 33.71875 -53.6875 32.5625 -54.5 C 32.375 -54.59375 32.203125 -54.6875 32.015625 -54.6875 C 30.84375 -54.859375 29.59375 -54.765625 28.6875 -54.046875 C 27.515625 -53.25 26.4375 -52.25 25.453125 -51.171875 C 24.546875 -50.1875 23.65625 -49.109375 22.84375 -48.03125 C 20.953125 -45.6875 18.984375 -43.34375 17.09375 -41.015625 C 16.734375 -40.65625 16.453125 -40.296875 16.09375 -39.84375 C 15.296875 -38.859375 14.484375 -37.859375 13.671875 -36.875 C 13.40625 -36.421875 13.046875 -36.0625 12.765625 -35.703125 C 11.96875 -34.625 11.234375 -33.453125 10.4375 -32.375 C 9.078125 -30.671875 7.828125 -28.953125 6.75 -27.078125 C 5.671875 -25.265625 4.671875 -23.46875 3.6875 -21.671875 C 3.0625 -20.59375 2.703125 -19.609375 2.0625 -18.609375 C 1.4375 -17.53125 0.8125 -16.546875 0.359375 -15.375 C -0.453125 -13.125 -1.34375 -10.96875 -2.25 -8.8125 C -2.875 -7.1875 -3.234375 -5.484375 -3.328125 -3.6875 C -3.421875 -2.421875 -2.96875 -1.265625 -1.984375 -0.359375 C -1.625 0 -0.984375 0.1875 -0.546875 0.1875 C 0.359375 0.1875 1.171875 0 1.984375 -0.1875 C 2.421875 -0.359375 2.78125 -0.71875 3.140625 -0.984375 C 4.3125 -1.890625 5.671875 -2.515625 6.65625 -3.59375 C 7.375 -4.40625 8.1875 -5.125 8.90625 -5.9375 C 9.265625 -6.203125 9.71875 -6.46875 9.984375 -6.828125 C 10.875 -7.640625 11.6875 -8.546875 12.5 -9.359375 C 13.671875 -10.34375 14.75 -11.421875 15.828125 -12.5 C 17.171875 -13.9375 18.703125 -15.109375 20.140625 -16.375 C 20.421875 -16.640625 20.78125 -16.8125 21.046875 -17 Z M 28.234375 -45.875 C 28.15625 -45.515625 28.0625 -45.15625 27.875 -44.78125 C 26.625 -42.625 25.359375 -40.296875 23.921875 -38.140625 C 21.671875 -34.984375 18.796875 -32.46875 15.734375 -30.046875 C 15.65625 -29.953125 15.46875 -29.953125 15.109375 -29.859375 C 15.46875 -30.21875 15.65625 -30.484375 15.828125 -30.765625 C 16.734375 -32.015625 17.625 -33.1875 18.53125 -34.359375 C 19.25 -35.25 19.875 -36.0625 20.59375 -36.96875 C 20.859375 -37.328125 21.21875 -37.59375 21.5 -38.046875 C 23.203125 -40.015625 24.828125 -42.09375 26.4375 -44.0625 C 26.984375 -44.703125 27.515625 -45.328125 28.0625 -45.953125 C 28.15625 -45.875 28.15625 -45.875 28.234375 -45.875 Z M 28.234375 -45.875 "/></g></g></g><g fill="#191919" fill-opacity="1"><g transform="translate(181.866353, 65.204654)"><g><path d="M 2.96875 -8.90625 C 3.875 -9.078125 4.671875 -9.171875 5.484375 -9.4375 C 7.109375 -9.796875 8.71875 -10.25 10.25 -10.796875 C 11.515625 -11.234375 12.6875 -11.78125 13.765625 -12.328125 C 14.84375 -12.859375 15.828125 -13.484375 16.8125 -14.125 C 18.078125 -15.015625 19.421875 -15.921875 20.59375 -17 C 21.5 -17.890625 22.484375 -18.890625 23.296875 -20.0625 C 24.375 -21.578125 25.09375 -23.203125 25.546875 -25 C 25.625 -25.359375 25.546875 -25.8125 25.546875 -26.171875 C 25.453125 -26.53125 25.359375 -26.890625 25.265625 -27.25 C 25.09375 -27.96875 24.734375 -28.515625 24.109375 -29.046875 C 23.203125 -29.859375 22.125 -30.3125 20.859375 -30.40625 C 19.78125 -30.40625 18.703125 -30.578125 17.625 -30.046875 C 16.09375 -29.40625 14.5625 -28.78125 13.046875 -28.0625 C 11.515625 -27.25 10.078125 -26.359375 8.8125 -25.1875 C 8 -24.46875 7.1875 -23.828125 6.390625 -23.109375 C 5.484375 -22.296875 4.59375 -21.578125 3.78125 -20.6875 C 2.515625 -19.421875 1.4375 -17.984375 0.453125 -16.453125 C -0.265625 -15.296875 -0.984375 -14.203125 -1.4375 -12.953125 C -2.25 -10.703125 -2.78125 -8.28125 -2.609375 -5.75 C -2.421875 -4.140625 -1.796875 -2.703125 -0.625 -1.53125 C -0.09375 -0.984375 0.546875 -0.453125 1.171875 -0.1875 C 2.25 0.09375 3.328125 0.359375 4.5 0.359375 C 6.390625 0.453125 8.359375 0.453125 10.34375 -0.1875 C 11.421875 -0.546875 12.5 -0.90625 13.578125 -1.34375 C 15.296875 -2.0625 16.90625 -2.875 18.53125 -3.6875 C 19.34375 -4.140625 20.140625 -4.59375 20.953125 -5.03125 C 21.859375 -5.671875 22.84375 -6.296875 23.65625 -7.109375 C 25.984375 -9.359375 28.0625 -11.515625 30.671875 -15.109375 C 31.203125 -15.921875 30.765625 -16.453125 30.40625 -16.8125 C 29.5 -17.8125 27.96875 -17.984375 26.890625 -17.171875 C 26.078125 -16.546875 25.265625 -15.828125 24.546875 -15.109375 C 23.5625 -14.125 22.671875 -12.953125 21.5 -12.140625 C 20.6875 -11.609375 19.875 -11.0625 19.15625 -10.34375 C 18.25 -9.625 17.265625 -8.90625 16.1875 -8.453125 C 15.921875 -8.359375 15.65625 -8.28125 15.296875 -8.09375 C 13.484375 -7.109375 11.6875 -6.203125 9.71875 -5.578125 C 7.734375 -4.953125 5.75 -4.59375 3.6875 -5.125 C 3.140625 -5.3125 2.875 -5.578125 2.703125 -6.03125 C 2.421875 -7.015625 2.875 -8 2.96875 -8.90625 Z M 6.109375 -15.015625 C 7.109375 -16.546875 8.28125 -17.8125 9.625 -18.890625 C 10.34375 -19.515625 11.15625 -20.140625 11.875 -20.78125 C 13.484375 -22.296875 15.46875 -23.390625 17.53125 -24.28125 C 18.078125 -24.546875 18.609375 -24.828125 19.0625 -25 C 19.34375 -25.09375 19.609375 -25.09375 20.0625 -25.1875 C 19.609375 -23.921875 18.984375 -22.9375 18.171875 -22.125 C 16.015625 -19.875 13.40625 -18.171875 10.703125 -16.640625 C 9.796875 -16.1875 8.8125 -15.921875 7.921875 -15.65625 C 7.375 -15.375 6.75 -15.203125 6.109375 -15.015625 Z M 6.109375 -15.015625 "/></g></g></g></svg>